<mxfile host="app.diagrams.net" modified="2022-06-22T07:40:01.214Z" agent="5.0 (Macintosh; Intel Mac OS X 10_15_7) AppleWebKit/537.36 (KHTML, like Gecko) Chrome/102.0.0.0 Safari/537.36" etag="VLswgcjN_CHc3DSHeBzE" version="20.0.2" type="github">
  <diagram name="Page-1" id="9361dd3d-8414-5efd-6122-117bd74ce7a7">
    <mxGraphModel dx="1426" dy="1488" grid="1" gridSize="10" guides="1" tooltips="1" connect="1" arrows="1" fold="1" page="0" pageScale="1.5" pageWidth="826" pageHeight="1169" background="none" math="0" shadow="0">
      <root>
        <mxCell id="0" />
        <mxCell id="1" parent="0" />
        <mxCell id="4" value="tuya" style="shadow=1;fillColor=#A2C4C9;strokeColor=none" parent="1" vertex="1">
          <mxGeometry x="270" y="-430" width="105" height="50" as="geometry" />
        </mxCell>
        <mxCell id="1qSMsmcvPF07PYK2cG8r-97" style="edgeStyle=orthogonalEdgeStyle;orthogonalLoop=1;jettySize=auto;html=1;exitX=0.5;exitY=1;exitDx=0;exitDy=0;dashed=1;rounded=0;startArrow=none;startFill=0;endArrow=none;endFill=0;" edge="1" parent="1" source="1qSMsmcvPF07PYK2cG8r-94">
          <mxGeometry relative="1" as="geometry">
            <mxPoint x="103" y="-20" as="targetPoint" />
          </mxGeometry>
        </mxCell>
        <mxCell id="1qSMsmcvPF07PYK2cG8r-94" value="h5前端" style="shadow=1;fillColor=#A2C4C9;strokeColor=none" vertex="1" parent="1">
          <mxGeometry x="50" y="-430" width="105" height="50" as="geometry" />
        </mxCell>
        <mxCell id="1qSMsmcvPF07PYK2cG8r-95" value="杭研" style="shadow=1;fillColor=#A2C4C9;strokeColor=none" vertex="1" parent="1">
          <mxGeometry x="490" y="-430" width="105" height="50" as="geometry" />
        </mxCell>
        <mxCell id="1qSMsmcvPF07PYK2cG8r-98" value="" style="endArrow=classic;html=1;rounded=0;" edge="1" parent="1">
          <mxGeometry width="50" height="50" relative="1" as="geometry">
            <mxPoint x="100" y="-309" as="sourcePoint" />
            <mxPoint x="320" y="-309" as="targetPoint" />
          </mxGeometry>
        </mxCell>
        <mxCell id="1qSMsmcvPF07PYK2cG8r-100" value="&lt;h3 style=&quot;box-sizing: border-box; margin: 32px 0px 16px; padding: 0px; color: rgb(19, 20, 21); margin-block: 0px; cursor: pointer; font-size: 7px; line-height: 30px; border: 0px; font-family: &amp;quot;Chinese Quote&amp;quot;, -apple-system, BlinkMacSystemFont, &amp;quot;Segoe UI&amp;quot;, Roboto, &amp;quot;PingFang SC&amp;quot;, &amp;quot;Hiragino Sans GB&amp;quot;, &amp;quot;Microsoft YaHei&amp;quot;, &amp;quot;Helvetica Neue&amp;quot;, Helvetica, Arial, sans-serif; opacity: 0.8; text-align: start;&quot; class=&quot;comp-markdown-title&quot; id=&quot;title-10-%E8%8E%B7%E5%8F%96%E5%AF%86%E7%A0%81%E5%8A%A0%E5%AF%86%E7%9A%84%E4%B8%B4%E6%97%B6%E7%A7%98%E9%92%A5&quot;&gt;获取密码加密的临时秘钥&lt;span style=&quot;box-sizing: border-box; margin: 0px 0px 0px 13px; padding: 0px; -webkit-font-smoothing: antialiased; font-family: &amp;quot;Chinese Quote&amp;quot;, -apple-system, BlinkMacSystemFont, &amp;quot;Segoe UI&amp;quot;, Roboto, &amp;quot;PingFang SC&amp;quot;, &amp;quot;Hiragino Sans GB&amp;quot;, &amp;quot;Microsoft YaHei&amp;quot;, &amp;quot;Helvetica Neue&amp;quot;, Helvetica, Arial, sans-serif; border: 0px; color: rgb(69, 137, 255); font-weight: 400; height: auto; width: 22px; display: inline-block; transform: translateY(1px); font-size: 7px;&quot; class=&quot;iconfont lianjie&quot;&gt;&lt;/span&gt;&lt;/h3&gt;" style="edgeLabel;html=1;align=center;verticalAlign=middle;resizable=0;points=[];fontSize=7;labelBackgroundColor=none;" vertex="1" connectable="0" parent="1qSMsmcvPF07PYK2cG8r-98">
          <mxGeometry x="-0.1983" y="1" relative="1" as="geometry">
            <mxPoint x="29" y="-10" as="offset" />
          </mxGeometry>
        </mxCell>
        <mxCell id="1qSMsmcvPF07PYK2cG8r-99" style="edgeStyle=orthogonalEdgeStyle;orthogonalLoop=1;jettySize=auto;html=1;exitX=0.5;exitY=1;exitDx=0;exitDy=0;dashed=1;rounded=0;startArrow=none;startFill=0;endArrow=none;endFill=0;" edge="1" parent="1" source="4">
          <mxGeometry relative="1" as="geometry">
            <mxPoint x="323" y="-20" as="targetPoint" />
            <mxPoint x="340" y="-280" as="sourcePoint" />
          </mxGeometry>
        </mxCell>
        <mxCell id="1qSMsmcvPF07PYK2cG8r-101" value="" style="endArrow=classic;html=1;rounded=0;dashed=1;" edge="1" parent="1">
          <mxGeometry width="50" height="50" relative="1" as="geometry">
            <mxPoint x="320" y="-280" as="sourcePoint" />
            <mxPoint x="100" y="-280" as="targetPoint" />
          </mxGeometry>
        </mxCell>
        <mxCell id="1qSMsmcvPF07PYK2cG8r-102" value="&lt;h3 style=&quot;box-sizing: border-box; margin: 32px 0px 16px; padding: 0px; color: rgb(19, 20, 21); margin-block: 0px; cursor: pointer; font-size: 7px; line-height: 30px; border: 0px; font-family: &amp;quot;Chinese Quote&amp;quot;, -apple-system, BlinkMacSystemFont, &amp;quot;Segoe UI&amp;quot;, Roboto, &amp;quot;PingFang SC&amp;quot;, &amp;quot;Hiragino Sans GB&amp;quot;, &amp;quot;Microsoft YaHei&amp;quot;, &amp;quot;Helvetica Neue&amp;quot;, Helvetica, Arial, sans-serif; opacity: 0.8; text-align: start;&quot; class=&quot;comp-markdown-title&quot; id=&quot;title-10-%E8%8E%B7%E5%8F%96%E5%AF%86%E7%A0%81%E5%8A%A0%E5%AF%86%E7%9A%84%E4%B8%B4%E6%97%B6%E7%A7%98%E9%92%A5&quot;&gt;返回临时秘钥(300s有效)&lt;span style=&quot;box-sizing: border-box; margin: 0px 0px 0px 13px; padding: 0px; -webkit-font-smoothing: antialiased; font-family: &amp;quot;Chinese Quote&amp;quot;, -apple-system, BlinkMacSystemFont, &amp;quot;Segoe UI&amp;quot;, Roboto, &amp;quot;PingFang SC&amp;quot;, &amp;quot;Hiragino Sans GB&amp;quot;, &amp;quot;Microsoft YaHei&amp;quot;, &amp;quot;Helvetica Neue&amp;quot;, Helvetica, Arial, sans-serif; border: 0px; color: rgb(69, 137, 255); font-weight: 400; height: auto; width: 22px; display: inline-block; transform: translateY(1px); font-size: 7px;&quot; class=&quot;iconfont lianjie&quot;&gt;&lt;/span&gt;&lt;/h3&gt;" style="edgeLabel;html=1;align=center;verticalAlign=middle;resizable=0;points=[];fontSize=7;labelBackgroundColor=none;" vertex="1" connectable="0" parent="1qSMsmcvPF07PYK2cG8r-101">
          <mxGeometry x="-0.1983" y="1" relative="1" as="geometry">
            <mxPoint x="-12" y="-10" as="offset" />
          </mxGeometry>
        </mxCell>
        <mxCell id="1qSMsmcvPF07PYK2cG8r-105" style="edgeStyle=orthogonalEdgeStyle;orthogonalLoop=1;jettySize=auto;html=1;dashed=1;rounded=0;startArrow=none;startFill=0;endArrow=none;endFill=0;exitX=0.5;exitY=1;exitDx=0;exitDy=0;" edge="1" parent="1" source="1qSMsmcvPF07PYK2cG8r-95">
          <mxGeometry relative="1" as="geometry">
            <mxPoint x="543" y="-30" as="targetPoint" />
            <mxPoint x="540" y="-360" as="sourcePoint" />
          </mxGeometry>
        </mxCell>
        <mxCell id="1qSMsmcvPF07PYK2cG8r-106" value="" style="endArrow=classic;html=1;rounded=0;" edge="1" parent="1">
          <mxGeometry width="50" height="50" relative="1" as="geometry">
            <mxPoint x="100" y="-240" as="sourcePoint" />
            <mxPoint x="540" y="-240" as="targetPoint" />
          </mxGeometry>
        </mxCell>
        <mxCell id="1qSMsmcvPF07PYK2cG8r-107" value="&lt;h3 style=&quot;box-sizing: border-box; margin: 32px 0px 16px; padding: 0px; color: rgb(19, 20, 21); margin-block: 0px; cursor: pointer; font-size: 7px; line-height: 30px; border: 0px; font-family: &amp;quot;Chinese Quote&amp;quot;, -apple-system, BlinkMacSystemFont, &amp;quot;Segoe UI&amp;quot;, Roboto, &amp;quot;PingFang SC&amp;quot;, &amp;quot;Hiragino Sans GB&amp;quot;, &amp;quot;Microsoft YaHei&amp;quot;, &amp;quot;Helvetica Neue&amp;quot;, Helvetica, Arial, sans-serif; opacity: 0.8; text-align: start;&quot; class=&quot;comp-markdown-title&quot; id=&quot;title-10-%E8%8E%B7%E5%8F%96%E5%AF%86%E7%A0%81%E5%8A%A0%E5%AF%86%E7%9A%84%E4%B8%B4%E6%97%B6%E7%A7%98%E9%92%A5&quot;&gt;通过accessKey AES解密 临时秘钥&lt;span style=&quot;box-sizing: border-box; margin: 0px 0px 0px 13px; padding: 0px; -webkit-font-smoothing: antialiased; font-family: &amp;quot;Chinese Quote&amp;quot;, -apple-system, BlinkMacSystemFont, &amp;quot;Segoe UI&amp;quot;, Roboto, &amp;quot;PingFang SC&amp;quot;, &amp;quot;Hiragino Sans GB&amp;quot;, &amp;quot;Microsoft YaHei&amp;quot;, &amp;quot;Helvetica Neue&amp;quot;, Helvetica, Arial, sans-serif; border: 0px; color: rgb(69, 137, 255); font-weight: 400; height: auto; width: 22px; display: inline-block; transform: translateY(1px); font-size: 7px;&quot; class=&quot;iconfont lianjie&quot;&gt;&lt;/span&gt;&lt;/h3&gt;" style="edgeLabel;html=1;align=center;verticalAlign=middle;resizable=0;points=[];fontSize=7;labelBackgroundColor=none;" vertex="1" connectable="0" parent="1qSMsmcvPF07PYK2cG8r-106">
          <mxGeometry x="-0.1983" y="1" relative="1" as="geometry">
            <mxPoint x="29" y="-10" as="offset" />
          </mxGeometry>
        </mxCell>
        <mxCell id="1qSMsmcvPF07PYK2cG8r-108" value="" style="endArrow=classic;html=1;rounded=0;dashed=1;" edge="1" parent="1">
          <mxGeometry width="50" height="50" relative="1" as="geometry">
            <mxPoint x="540" y="-210" as="sourcePoint" />
            <mxPoint x="110" y="-210" as="targetPoint" />
          </mxGeometry>
        </mxCell>
        <mxCell id="1qSMsmcvPF07PYK2cG8r-109" value="&lt;h3 style=&quot;box-sizing: border-box; margin: 32px 0px 16px; padding: 0px; color: rgb(19, 20, 21); margin-block: 0px; cursor: pointer; font-size: 7px; line-height: 30px; border: 0px; font-family: &amp;quot;Chinese Quote&amp;quot;, -apple-system, BlinkMacSystemFont, &amp;quot;Segoe UI&amp;quot;, Roboto, &amp;quot;PingFang SC&amp;quot;, &amp;quot;Hiragino Sans GB&amp;quot;, &amp;quot;Microsoft YaHei&amp;quot;, &amp;quot;Helvetica Neue&amp;quot;, Helvetica, Arial, sans-serif; opacity: 0.8; text-align: start;&quot; class=&quot;comp-markdown-title&quot; id=&quot;title-10-%E8%8E%B7%E5%8F%96%E5%AF%86%E7%A0%81%E5%8A%A0%E5%AF%86%E7%9A%84%E4%B8%B4%E6%97%B6%E7%A7%98%E9%92%A5&quot;&gt;返回原始加密秘钥&lt;span style=&quot;box-sizing: border-box; margin: 0px 0px 0px 13px; padding: 0px; -webkit-font-smoothing: antialiased; font-family: &amp;quot;Chinese Quote&amp;quot;, -apple-system, BlinkMacSystemFont, &amp;quot;Segoe UI&amp;quot;, Roboto, &amp;quot;PingFang SC&amp;quot;, &amp;quot;Hiragino Sans GB&amp;quot;, &amp;quot;Microsoft YaHei&amp;quot;, &amp;quot;Helvetica Neue&amp;quot;, Helvetica, Arial, sans-serif; border: 0px; color: rgb(69, 137, 255); font-weight: 400; height: auto; width: 22px; display: inline-block; transform: translateY(1px); font-size: 7px;&quot; class=&quot;iconfont lianjie&quot;&gt;&lt;/span&gt;&lt;/h3&gt;" style="edgeLabel;html=1;align=center;verticalAlign=middle;resizable=0;points=[];fontSize=7;labelBackgroundColor=none;" vertex="1" connectable="0" parent="1qSMsmcvPF07PYK2cG8r-108">
          <mxGeometry x="-0.1983" y="1" relative="1" as="geometry">
            <mxPoint x="-92" y="-10" as="offset" />
          </mxGeometry>
        </mxCell>
        <mxCell id="1qSMsmcvPF07PYK2cG8r-110" value="" style="endArrow=classic;html=1;rounded=0;" edge="1" parent="1">
          <mxGeometry width="50" height="50" relative="1" as="geometry">
            <mxPoint x="100" y="-160" as="sourcePoint" />
            <mxPoint x="540" y="-160" as="targetPoint" />
          </mxGeometry>
        </mxCell>
        <mxCell id="1qSMsmcvPF07PYK2cG8r-111" value="&lt;h3 style=&quot;box-sizing: border-box; margin: 32px 0px 16px; padding: 0px; color: rgb(19, 20, 21); margin-block: 0px; cursor: pointer; font-size: 7px; line-height: 30px; border: 0px; font-family: &amp;quot;Chinese Quote&amp;quot;, -apple-system, BlinkMacSystemFont, &amp;quot;Segoe UI&amp;quot;, Roboto, &amp;quot;PingFang SC&amp;quot;, &amp;quot;Hiragino Sans GB&amp;quot;, &amp;quot;Microsoft YaHei&amp;quot;, &amp;quot;Helvetica Neue&amp;quot;, Helvetica, Arial, sans-serif; opacity: 0.8; text-align: start;&quot; class=&quot;comp-markdown-title&quot; id=&quot;title-10-%E8%8E%B7%E5%8F%96%E5%AF%86%E7%A0%81%E5%8A%A0%E5%AF%86%E7%9A%84%E4%B8%B4%E6%97%B6%E7%A7%98%E9%92%A5&quot;&gt;使用原始秘钥AES加密原始密码&lt;span style=&quot;box-sizing: border-box; margin: 0px 0px 0px 13px; padding: 0px; -webkit-font-smoothing: antialiased; font-family: &amp;quot;Chinese Quote&amp;quot;, -apple-system, BlinkMacSystemFont, &amp;quot;Segoe UI&amp;quot;, Roboto, &amp;quot;PingFang SC&amp;quot;, &amp;quot;Hiragino Sans GB&amp;quot;, &amp;quot;Microsoft YaHei&amp;quot;, &amp;quot;Helvetica Neue&amp;quot;, Helvetica, Arial, sans-serif; border: 0px; color: rgb(69, 137, 255); font-weight: 400; height: auto; width: 22px; display: inline-block; transform: translateY(1px); font-size: 7px;&quot; class=&quot;iconfont lianjie&quot;&gt;&lt;/span&gt;&lt;/h3&gt;" style="edgeLabel;html=1;align=center;verticalAlign=middle;resizable=0;points=[];fontSize=7;labelBackgroundColor=none;" vertex="1" connectable="0" parent="1qSMsmcvPF07PYK2cG8r-110">
          <mxGeometry x="-0.1983" y="1" relative="1" as="geometry">
            <mxPoint x="29" y="-10" as="offset" />
          </mxGeometry>
        </mxCell>
        <mxCell id="1qSMsmcvPF07PYK2cG8r-112" value="" style="endArrow=classic;html=1;rounded=0;dashed=1;" edge="1" parent="1">
          <mxGeometry width="50" height="50" relative="1" as="geometry">
            <mxPoint x="537.5" y="-130" as="sourcePoint" />
            <mxPoint x="107.5" y="-130" as="targetPoint" />
          </mxGeometry>
        </mxCell>
        <mxCell id="1qSMsmcvPF07PYK2cG8r-113" value="&lt;h3 style=&quot;box-sizing: border-box; margin: 32px 0px 16px; padding: 0px; color: rgb(19, 20, 21); margin-block: 0px; cursor: pointer; font-size: 7px; line-height: 30px; border: 0px; font-family: &amp;quot;Chinese Quote&amp;quot;, -apple-system, BlinkMacSystemFont, &amp;quot;Segoe UI&amp;quot;, Roboto, &amp;quot;PingFang SC&amp;quot;, &amp;quot;Hiragino Sans GB&amp;quot;, &amp;quot;Microsoft YaHei&amp;quot;, &amp;quot;Helvetica Neue&amp;quot;, Helvetica, Arial, sans-serif; opacity: 0.8; text-align: start;&quot; class=&quot;comp-markdown-title&quot; id=&quot;title-10-%E8%8E%B7%E5%8F%96%E5%AF%86%E7%A0%81%E5%8A%A0%E5%AF%86%E7%9A%84%E4%B8%B4%E6%97%B6%E7%A7%98%E9%92%A5&quot;&gt;返回已加密的密码&lt;span style=&quot;box-sizing: border-box; margin: 0px 0px 0px 13px; padding: 0px; -webkit-font-smoothing: antialiased; font-family: &amp;quot;Chinese Quote&amp;quot;, -apple-system, BlinkMacSystemFont, &amp;quot;Segoe UI&amp;quot;, Roboto, &amp;quot;PingFang SC&amp;quot;, &amp;quot;Hiragino Sans GB&amp;quot;, &amp;quot;Microsoft YaHei&amp;quot;, &amp;quot;Helvetica Neue&amp;quot;, Helvetica, Arial, sans-serif; border: 0px; color: rgb(69, 137, 255); font-weight: 400; height: auto; width: 22px; display: inline-block; transform: translateY(1px); font-size: 7px;&quot; class=&quot;iconfont lianjie&quot;&gt;&lt;/span&gt;&lt;/h3&gt;" style="edgeLabel;html=1;align=center;verticalAlign=middle;resizable=0;points=[];fontSize=7;labelBackgroundColor=none;" vertex="1" connectable="0" parent="1qSMsmcvPF07PYK2cG8r-112">
          <mxGeometry x="-0.1983" y="1" relative="1" as="geometry">
            <mxPoint x="-92" y="-10" as="offset" />
          </mxGeometry>
        </mxCell>
        <mxCell id="1qSMsmcvPF07PYK2cG8r-115" value="" style="endArrow=classic;html=1;rounded=0;" edge="1" parent="1">
          <mxGeometry width="50" height="50" relative="1" as="geometry">
            <mxPoint x="100" y="-80" as="sourcePoint" />
            <mxPoint x="320" y="-80" as="targetPoint" />
          </mxGeometry>
        </mxCell>
        <mxCell id="1qSMsmcvPF07PYK2cG8r-116" value="&lt;h3 style=&quot;box-sizing: border-box; margin: 32px 0px 16px; padding: 0px; color: rgb(19, 20, 21); margin-block: 0px; cursor: pointer; font-size: 7px; line-height: 30px; border: 0px; font-family: &amp;quot;Chinese Quote&amp;quot;, -apple-system, BlinkMacSystemFont, &amp;quot;Segoe UI&amp;quot;, Roboto, &amp;quot;PingFang SC&amp;quot;, &amp;quot;Hiragino Sans GB&amp;quot;, &amp;quot;Microsoft YaHei&amp;quot;, &amp;quot;Helvetica Neue&amp;quot;, Helvetica, Arial, sans-serif; opacity: 0.8;&quot; class=&quot;comp-markdown-title&quot; id=&quot;title-10-%E8%8E%B7%E5%8F%96%E5%AF%86%E7%A0%81%E5%8A%A0%E5%AF%86%E7%9A%84%E4%B8%B4%E6%97%B6%E7%A7%98%E9%92%A5&quot;&gt;&amp;nbsp; &amp;nbsp; &amp;nbsp; &amp;nbsp; &amp;nbsp;创建临时密码&lt;span style=&quot;box-sizing: border-box; margin: 0px 0px 0px 13px; padding: 0px; -webkit-font-smoothing: antialiased; font-family: &amp;quot;Chinese Quote&amp;quot;, -apple-system, BlinkMacSystemFont, &amp;quot;Segoe UI&amp;quot;, Roboto, &amp;quot;PingFang SC&amp;quot;, &amp;quot;Hiragino Sans GB&amp;quot;, &amp;quot;Microsoft YaHei&amp;quot;, &amp;quot;Helvetica Neue&amp;quot;, Helvetica, Arial, sans-serif; border: 0px; color: rgb(69, 137, 255); font-weight: 400; height: auto; width: 22px; display: inline-block; transform: translateY(1px); font-size: 7px;&quot; class=&quot;iconfont lianjie&quot;&gt;&lt;/span&gt;&lt;/h3&gt;&lt;div&gt;携带ticketId和加密的密码&lt;/div&gt;" style="edgeLabel;html=1;align=center;verticalAlign=middle;resizable=0;points=[];fontSize=7;labelBackgroundColor=none;" vertex="1" connectable="0" parent="1qSMsmcvPF07PYK2cG8r-115">
          <mxGeometry x="-0.1983" y="1" relative="1" as="geometry">
            <mxPoint x="25" y="-4" as="offset" />
          </mxGeometry>
        </mxCell>
        <mxCell id="1qSMsmcvPF07PYK2cG8r-117" value="" style="endArrow=classic;html=1;rounded=0;dashed=1;" edge="1" parent="1">
          <mxGeometry width="50" height="50" relative="1" as="geometry">
            <mxPoint x="320" y="-38" as="sourcePoint" />
            <mxPoint x="100" y="-38" as="targetPoint" />
          </mxGeometry>
        </mxCell>
        <mxCell id="1qSMsmcvPF07PYK2cG8r-118" value="&lt;h3 style=&quot;box-sizing: border-box; margin: 32px 0px 16px; padding: 0px; color: rgb(19, 20, 21); margin-block: 0px; cursor: pointer; font-size: 7px; line-height: 30px; border: 0px; font-family: &amp;quot;Chinese Quote&amp;quot;, -apple-system, BlinkMacSystemFont, &amp;quot;Segoe UI&amp;quot;, Roboto, &amp;quot;PingFang SC&amp;quot;, &amp;quot;Hiragino Sans GB&amp;quot;, &amp;quot;Microsoft YaHei&amp;quot;, &amp;quot;Helvetica Neue&amp;quot;, Helvetica, Arial, sans-serif; opacity: 0.8; text-align: start;&quot; class=&quot;comp-markdown-title&quot; id=&quot;title-10-%E8%8E%B7%E5%8F%96%E5%AF%86%E7%A0%81%E5%8A%A0%E5%AF%86%E7%9A%84%E4%B8%B4%E6%97%B6%E7%A7%98%E9%92%A5&quot;&gt;返回结果&lt;span style=&quot;box-sizing: border-box; margin: 0px 0px 0px 13px; padding: 0px; -webkit-font-smoothing: antialiased; font-family: &amp;quot;Chinese Quote&amp;quot;, -apple-system, BlinkMacSystemFont, &amp;quot;Segoe UI&amp;quot;, Roboto, &amp;quot;PingFang SC&amp;quot;, &amp;quot;Hiragino Sans GB&amp;quot;, &amp;quot;Microsoft YaHei&amp;quot;, &amp;quot;Helvetica Neue&amp;quot;, Helvetica, Arial, sans-serif; border: 0px; color: rgb(69, 137, 255); font-weight: 400; height: auto; width: 22px; display: inline-block; transform: translateY(1px); font-size: 7px;&quot; class=&quot;iconfont lianjie&quot;&gt;&lt;/span&gt;&lt;/h3&gt;" style="edgeLabel;html=1;align=center;verticalAlign=middle;resizable=0;points=[];fontSize=7;labelBackgroundColor=none;" vertex="1" connectable="0" parent="1qSMsmcvPF07PYK2cG8r-117">
          <mxGeometry x="-0.1983" y="1" relative="1" as="geometry">
            <mxPoint x="-12" y="-10" as="offset" />
          </mxGeometry>
        </mxCell>
      </root>
    </mxGraphModel>
  </diagram>
</mxfile>
